<mxfile host="Electron" agent="Mozilla/5.0 (Windows NT 10.0; Win64; x64) AppleWebKit/537.36 (KHTML, like Gecko) draw.io/24.7.17 Chrome/128.0.6613.36 Electron/32.0.1 Safari/537.36" version="24.7.17">
  <diagram name="Page-1" id="lQksJHaqKnuztnZUSCbJ">
    <mxGraphModel dx="1036" dy="654" grid="1" gridSize="10" guides="1" tooltips="1" connect="1" arrows="1" fold="1" page="1" pageScale="1" pageWidth="827" pageHeight="1169" math="0" shadow="0">
      <root>
        <mxCell id="0" />
        <mxCell id="1" parent="0" />
        <mxCell id="Rj91u_4bTEfMy_Txehrc-23" style="edgeStyle=orthogonalEdgeStyle;rounded=0;orthogonalLoop=1;jettySize=auto;html=1;" edge="1" parent="1" source="Rj91u_4bTEfMy_Txehrc-1" target="Rj91u_4bTEfMy_Txehrc-6">
          <mxGeometry relative="1" as="geometry" />
        </mxCell>
        <mxCell id="Rj91u_4bTEfMy_Txehrc-1" value="print_char" style="rounded=1;whiteSpace=wrap;html=1;" vertex="1" parent="1">
          <mxGeometry x="20" y="50" width="120" height="60" as="geometry" />
        </mxCell>
        <mxCell id="Rj91u_4bTEfMy_Txehrc-26" style="edgeStyle=orthogonalEdgeStyle;rounded=0;orthogonalLoop=1;jettySize=auto;html=1;entryX=0.5;entryY=0;entryDx=0;entryDy=0;" edge="1" parent="1" source="Rj91u_4bTEfMy_Txehrc-2" target="Rj91u_4bTEfMy_Txehrc-9">
          <mxGeometry relative="1" as="geometry" />
        </mxCell>
        <mxCell id="Rj91u_4bTEfMy_Txehrc-2" value="print_string" style="rounded=1;whiteSpace=wrap;html=1;" vertex="1" parent="1">
          <mxGeometry x="180" y="50" width="120" height="60" as="geometry" />
        </mxCell>
        <mxCell id="Rj91u_4bTEfMy_Txehrc-35" style="edgeStyle=orthogonalEdgeStyle;rounded=0;orthogonalLoop=1;jettySize=auto;html=1;entryX=0.5;entryY=0;entryDx=0;entryDy=0;" edge="1" parent="1" source="Rj91u_4bTEfMy_Txehrc-3" target="Rj91u_4bTEfMy_Txehrc-18">
          <mxGeometry relative="1" as="geometry" />
        </mxCell>
        <mxCell id="Rj91u_4bTEfMy_Txehrc-3" value="print_int" style="rounded=1;whiteSpace=wrap;html=1;" vertex="1" parent="1">
          <mxGeometry x="500" y="50" width="120" height="60" as="geometry" />
        </mxCell>
        <mxCell id="Rj91u_4bTEfMy_Txehrc-32" style="edgeStyle=orthogonalEdgeStyle;rounded=0;orthogonalLoop=1;jettySize=auto;html=1;entryX=0.5;entryY=0;entryDx=0;entryDy=0;" edge="1" parent="1" source="Rj91u_4bTEfMy_Txehrc-4" target="Rj91u_4bTEfMy_Txehrc-14">
          <mxGeometry relative="1" as="geometry">
            <mxPoint x="400" y="160" as="targetPoint" />
          </mxGeometry>
        </mxCell>
        <mxCell id="Rj91u_4bTEfMy_Txehrc-4" value="print_percent" style="rounded=1;whiteSpace=wrap;html=1;" vertex="1" parent="1">
          <mxGeometry x="340" y="50" width="120" height="60" as="geometry" />
        </mxCell>
        <mxCell id="Rj91u_4bTEfMy_Txehrc-43" style="edgeStyle=orthogonalEdgeStyle;rounded=0;orthogonalLoop=1;jettySize=auto;html=1;entryX=1;entryY=0.75;entryDx=0;entryDy=0;" edge="1" parent="1" source="Rj91u_4bTEfMy_Txehrc-5" target="Rj91u_4bTEfMy_Txehrc-21">
          <mxGeometry relative="1" as="geometry">
            <Array as="points">
              <mxPoint x="740" y="665" />
            </Array>
          </mxGeometry>
        </mxCell>
        <mxCell id="Rj91u_4bTEfMy_Txehrc-5" value="print_number" style="rounded=1;whiteSpace=wrap;html=1;" vertex="1" parent="1">
          <mxGeometry x="660" y="50" width="120" height="60" as="geometry" />
        </mxCell>
        <mxCell id="Rj91u_4bTEfMy_Txehrc-24" style="edgeStyle=orthogonalEdgeStyle;rounded=0;orthogonalLoop=1;jettySize=auto;html=1;entryX=0.5;entryY=0;entryDx=0;entryDy=0;" edge="1" parent="1" source="Rj91u_4bTEfMy_Txehrc-6" target="Rj91u_4bTEfMy_Txehrc-7">
          <mxGeometry relative="1" as="geometry" />
        </mxCell>
        <mxCell id="Rj91u_4bTEfMy_Txehrc-6" value="appel&lt;div&gt;va_arg(args, int)&lt;/div&gt;&lt;div&gt;pour recuperer&amp;nbsp;&lt;/div&gt;&lt;div&gt;le caractère&lt;/div&gt;" style="rounded=1;whiteSpace=wrap;html=1;" vertex="1" parent="1">
          <mxGeometry x="20" y="170" width="120" height="60" as="geometry" />
        </mxCell>
        <mxCell id="Rj91u_4bTEfMy_Txehrc-25" style="edgeStyle=orthogonalEdgeStyle;rounded=0;orthogonalLoop=1;jettySize=auto;html=1;entryX=0.5;entryY=0;entryDx=0;entryDy=0;" edge="1" parent="1" source="Rj91u_4bTEfMy_Txehrc-7" target="Rj91u_4bTEfMy_Txehrc-8">
          <mxGeometry relative="1" as="geometry" />
        </mxCell>
        <mxCell id="Rj91u_4bTEfMy_Txehrc-7" value="print via _putchar" style="rounded=1;whiteSpace=wrap;html=1;" vertex="1" parent="1">
          <mxGeometry x="20" y="620" width="120" height="60" as="geometry" />
        </mxCell>
        <mxCell id="Rj91u_4bTEfMy_Txehrc-8" value="return 1 char" style="rounded=1;whiteSpace=wrap;html=1;" vertex="1" parent="1">
          <mxGeometry x="20" y="730" width="120" height="60" as="geometry" />
        </mxCell>
        <mxCell id="Rj91u_4bTEfMy_Txehrc-27" style="edgeStyle=orthogonalEdgeStyle;rounded=0;orthogonalLoop=1;jettySize=auto;html=1;entryX=0.5;entryY=0;entryDx=0;entryDy=0;" edge="1" parent="1" source="Rj91u_4bTEfMy_Txehrc-9" target="Rj91u_4bTEfMy_Txehrc-10">
          <mxGeometry relative="1" as="geometry" />
        </mxCell>
        <mxCell id="Rj91u_4bTEfMy_Txehrc-9" value="appel&lt;div&gt;va_arg(args, char*)&lt;/div&gt;&lt;div&gt;pour recuperer&lt;/div&gt;&lt;div&gt;la chaîne&lt;/div&gt;" style="rounded=1;whiteSpace=wrap;html=1;" vertex="1" parent="1">
          <mxGeometry x="180" y="170" width="120" height="60" as="geometry" />
        </mxCell>
        <mxCell id="Rj91u_4bTEfMy_Txehrc-28" style="edgeStyle=orthogonalEdgeStyle;rounded=0;orthogonalLoop=1;jettySize=auto;html=1;entryX=0.5;entryY=0;entryDx=0;entryDy=0;exitX=0.25;exitY=1;exitDx=0;exitDy=0;" edge="1" parent="1" source="Rj91u_4bTEfMy_Txehrc-10" target="Rj91u_4bTEfMy_Txehrc-11">
          <mxGeometry relative="1" as="geometry" />
        </mxCell>
        <mxCell id="Rj91u_4bTEfMy_Txehrc-29" style="edgeStyle=orthogonalEdgeStyle;rounded=0;orthogonalLoop=1;jettySize=auto;html=1;entryX=0.75;entryY=0;entryDx=0;entryDy=0;exitX=0.75;exitY=1;exitDx=0;exitDy=0;" edge="1" parent="1" source="Rj91u_4bTEfMy_Txehrc-10" target="Rj91u_4bTEfMy_Txehrc-12">
          <mxGeometry relative="1" as="geometry" />
        </mxCell>
        <mxCell id="Rj91u_4bTEfMy_Txehrc-10" value="verifier si la chaîne&lt;div&gt;est NULL&lt;/div&gt;" style="rounded=1;whiteSpace=wrap;html=1;" vertex="1" parent="1">
          <mxGeometry x="180" y="290" width="120" height="60" as="geometry" />
        </mxCell>
        <mxCell id="Rj91u_4bTEfMy_Txehrc-11" value="OUI&lt;div&gt;print&lt;/div&gt;&lt;div&gt;&quot;(nil)&quot;&lt;/div&gt;" style="rounded=1;whiteSpace=wrap;html=1;" vertex="1" parent="1">
          <mxGeometry x="180" y="400" width="60" height="60" as="geometry" />
        </mxCell>
        <mxCell id="Rj91u_4bTEfMy_Txehrc-30" style="edgeStyle=orthogonalEdgeStyle;rounded=0;orthogonalLoop=1;jettySize=auto;html=1;entryX=0.5;entryY=0;entryDx=0;entryDy=0;" edge="1" parent="1" source="Rj91u_4bTEfMy_Txehrc-12" target="Rj91u_4bTEfMy_Txehrc-13">
          <mxGeometry relative="1" as="geometry" />
        </mxCell>
        <mxCell id="Rj91u_4bTEfMy_Txehrc-12" value="parcourir la chaîne" style="rounded=1;whiteSpace=wrap;html=1;" vertex="1" parent="1">
          <mxGeometry x="180" y="510" width="120" height="60" as="geometry" />
        </mxCell>
        <mxCell id="Rj91u_4bTEfMy_Txehrc-31" style="edgeStyle=orthogonalEdgeStyle;rounded=0;orthogonalLoop=1;jettySize=auto;html=1;entryX=0.5;entryY=0;entryDx=0;entryDy=0;" edge="1" parent="1" source="Rj91u_4bTEfMy_Txehrc-13" target="Rj91u_4bTEfMy_Txehrc-17">
          <mxGeometry relative="1" as="geometry" />
        </mxCell>
        <mxCell id="Rj91u_4bTEfMy_Txehrc-13" value="print chaque char&lt;div&gt;via _putchar&lt;/div&gt;" style="rounded=1;whiteSpace=wrap;html=1;" vertex="1" parent="1">
          <mxGeometry x="180" y="620" width="120" height="60" as="geometry" />
        </mxCell>
        <mxCell id="Rj91u_4bTEfMy_Txehrc-33" style="edgeStyle=orthogonalEdgeStyle;rounded=0;orthogonalLoop=1;jettySize=auto;html=1;" edge="1" parent="1" source="Rj91u_4bTEfMy_Txehrc-14" target="Rj91u_4bTEfMy_Txehrc-15">
          <mxGeometry relative="1" as="geometry" />
        </mxCell>
        <mxCell id="Rj91u_4bTEfMy_Txehrc-14" value="appel&amp;nbsp;&lt;div&gt;sans argument&lt;/div&gt;&lt;div&gt;(void)args&lt;/div&gt;" style="rounded=1;whiteSpace=wrap;html=1;" vertex="1" parent="1">
          <mxGeometry x="340" y="170" width="120" height="60" as="geometry" />
        </mxCell>
        <mxCell id="Rj91u_4bTEfMy_Txehrc-34" style="edgeStyle=orthogonalEdgeStyle;rounded=0;orthogonalLoop=1;jettySize=auto;html=1;entryX=0.5;entryY=0;entryDx=0;entryDy=0;" edge="1" parent="1" source="Rj91u_4bTEfMy_Txehrc-15" target="Rj91u_4bTEfMy_Txehrc-16">
          <mxGeometry relative="1" as="geometry" />
        </mxCell>
        <mxCell id="Rj91u_4bTEfMy_Txehrc-15" value="print via _putchar" style="rounded=1;whiteSpace=wrap;html=1;" vertex="1" parent="1">
          <mxGeometry x="340" y="620" width="120" height="60" as="geometry" />
        </mxCell>
        <mxCell id="Rj91u_4bTEfMy_Txehrc-16" value="return 1 char %" style="rounded=1;whiteSpace=wrap;html=1;" vertex="1" parent="1">
          <mxGeometry x="340" y="730" width="120" height="60" as="geometry" />
        </mxCell>
        <mxCell id="Rj91u_4bTEfMy_Txehrc-17" value="return nombre&lt;div&gt;de char de la chaîne&lt;/div&gt;" style="rounded=1;whiteSpace=wrap;html=1;" vertex="1" parent="1">
          <mxGeometry x="180" y="730" width="120" height="60" as="geometry" />
        </mxCell>
        <mxCell id="Rj91u_4bTEfMy_Txehrc-36" style="edgeStyle=orthogonalEdgeStyle;rounded=0;orthogonalLoop=1;jettySize=auto;html=1;entryX=0.5;entryY=0;entryDx=0;entryDy=0;" edge="1" parent="1" source="Rj91u_4bTEfMy_Txehrc-18" target="Rj91u_4bTEfMy_Txehrc-19">
          <mxGeometry relative="1" as="geometry" />
        </mxCell>
        <mxCell id="Rj91u_4bTEfMy_Txehrc-18" value="appel&lt;div&gt;va_arg(args, int)&lt;/div&gt;&lt;div&gt;pour recuperer l&#39;entier&lt;/div&gt;" style="rounded=1;whiteSpace=wrap;html=1;" vertex="1" parent="1">
          <mxGeometry x="500" y="170" width="120" height="60" as="geometry" />
        </mxCell>
        <mxCell id="Rj91u_4bTEfMy_Txehrc-38" style="edgeStyle=orthogonalEdgeStyle;rounded=0;orthogonalLoop=1;jettySize=auto;html=1;entryX=0.75;entryY=0;entryDx=0;entryDy=0;exitX=0.75;exitY=1;exitDx=0;exitDy=0;" edge="1" parent="1" source="Rj91u_4bTEfMy_Txehrc-19" target="Rj91u_4bTEfMy_Txehrc-21">
          <mxGeometry relative="1" as="geometry" />
        </mxCell>
        <mxCell id="Rj91u_4bTEfMy_Txehrc-40" value="NON" style="edgeLabel;html=1;align=center;verticalAlign=middle;resizable=0;points=[];" vertex="1" connectable="0" parent="Rj91u_4bTEfMy_Txehrc-38">
          <mxGeometry x="-0.5125" relative="1" as="geometry">
            <mxPoint as="offset" />
          </mxGeometry>
        </mxCell>
        <mxCell id="Rj91u_4bTEfMy_Txehrc-19" value="verifier si negatif" style="rounded=1;whiteSpace=wrap;html=1;" vertex="1" parent="1">
          <mxGeometry x="500" y="290" width="120" height="60" as="geometry" />
        </mxCell>
        <mxCell id="Rj91u_4bTEfMy_Txehrc-41" style="edgeStyle=orthogonalEdgeStyle;rounded=0;orthogonalLoop=1;jettySize=auto;html=1;entryX=0.25;entryY=0;entryDx=0;entryDy=0;" edge="1" parent="1" source="Rj91u_4bTEfMy_Txehrc-20" target="Rj91u_4bTEfMy_Txehrc-21">
          <mxGeometry relative="1" as="geometry" />
        </mxCell>
        <mxCell id="Rj91u_4bTEfMy_Txehrc-20" value="OUI&lt;div&gt;_putchar (&#39;-&#39;)&lt;/div&gt;&lt;div&gt;et convertir&lt;/div&gt;&lt;div&gt;en positif&lt;/div&gt;" style="rounded=1;whiteSpace=wrap;html=1;" vertex="1" parent="1">
          <mxGeometry x="470" y="450" width="80" height="60" as="geometry" />
        </mxCell>
        <mxCell id="Rj91u_4bTEfMy_Txehrc-39" style="edgeStyle=orthogonalEdgeStyle;rounded=0;orthogonalLoop=1;jettySize=auto;html=1;entryX=0.5;entryY=0;entryDx=0;entryDy=0;" edge="1" parent="1" source="Rj91u_4bTEfMy_Txehrc-21" target="Rj91u_4bTEfMy_Txehrc-22">
          <mxGeometry relative="1" as="geometry" />
        </mxCell>
        <mxCell id="Rj91u_4bTEfMy_Txehrc-42" style="edgeStyle=orthogonalEdgeStyle;rounded=0;orthogonalLoop=1;jettySize=auto;html=1;entryX=0.25;entryY=1;entryDx=0;entryDy=0;" edge="1" parent="1" target="Rj91u_4bTEfMy_Txehrc-5">
          <mxGeometry relative="1" as="geometry">
            <mxPoint x="620" y="630" as="sourcePoint" />
            <mxPoint x="690" y="120" as="targetPoint" />
          </mxGeometry>
        </mxCell>
        <mxCell id="Rj91u_4bTEfMy_Txehrc-45" value="voir flowchart&lt;div&gt;specifique&lt;/div&gt;" style="edgeLabel;html=1;align=center;verticalAlign=middle;resizable=0;points=[];" vertex="1" connectable="0" parent="Rj91u_4bTEfMy_Txehrc-42">
          <mxGeometry x="-0.8645" y="-1" relative="1" as="geometry">
            <mxPoint as="offset" />
          </mxGeometry>
        </mxCell>
        <mxCell id="Rj91u_4bTEfMy_Txehrc-21" value="print chaque chiffre&lt;div&gt;de façon recursive&lt;/div&gt;&lt;div&gt;avec _putchar&amp;nbsp;&lt;span style=&quot;background-color: initial;&quot;&gt;en utilisant print_number&lt;/span&gt;&lt;/div&gt;" style="rounded=1;whiteSpace=wrap;html=1;" vertex="1" parent="1">
          <mxGeometry x="500" y="620" width="120" height="60" as="geometry" />
        </mxCell>
        <mxCell id="Rj91u_4bTEfMy_Txehrc-22" value="return le nombre de&amp;nbsp;&lt;div&gt;caractère imprimé&lt;/div&gt;" style="rounded=1;whiteSpace=wrap;html=1;" vertex="1" parent="1">
          <mxGeometry x="500" y="730" width="120" height="60" as="geometry" />
        </mxCell>
        <mxCell id="Rj91u_4bTEfMy_Txehrc-37" style="edgeStyle=orthogonalEdgeStyle;rounded=0;orthogonalLoop=1;jettySize=auto;html=1;exitX=0.25;exitY=1;exitDx=0;exitDy=0;entryX=0.5;entryY=0;entryDx=0;entryDy=0;" edge="1" parent="1" source="Rj91u_4bTEfMy_Txehrc-19" target="Rj91u_4bTEfMy_Txehrc-20">
          <mxGeometry relative="1" as="geometry">
            <mxPoint x="540" y="400" as="targetPoint" />
          </mxGeometry>
        </mxCell>
      </root>
    </mxGraphModel>
  </diagram>
</mxfile>
